<mxfile host="app.diagrams.net" modified="2023-10-16T21:54:13.206Z" agent="Mozilla/5.0 (Windows NT 10.0; Win64; x64) AppleWebKit/537.36 (KHTML, like Gecko) Chrome/118.0.0.0 Safari/537.36 Edg/118.0.2088.46" etag="nenB6yi2McVViVOMY0Lw" version="22.0.4" type="dropbox" pages="2">
  <diagram name="Logica" id="Dl5K3hWF-43rdkW5KuqW">
    <mxGraphModel dx="594" dy="1822" grid="1" gridSize="10" guides="1" tooltips="1" connect="1" arrows="1" fold="1" page="1" pageScale="1" pageWidth="1654" pageHeight="1169" math="0" shadow="0">
      <root>
        <mxCell id="0" />
        <mxCell id="1" parent="0" />
        <mxCell id="75TNPySaZIBt-O8_bH7v-13" value="" style="rounded=0;whiteSpace=wrap;html=1;fillStyle=hatch;dashed=1;dashPattern=8 8;strokeColor=#808080;" vertex="1" parent="1">
          <mxGeometry x="190" y="228" width="160" height="92" as="geometry" />
        </mxCell>
        <mxCell id="75TNPySaZIBt-O8_bH7v-6" value="" style="rounded=0;whiteSpace=wrap;html=1;fillStyle=hatch;dashed=1;dashPattern=8 8;strokeColor=#808080;" vertex="1" parent="1">
          <mxGeometry x="360" y="228" width="630" height="172" as="geometry" />
        </mxCell>
        <mxCell id="75TNPySaZIBt-O8_bH7v-4" value="" style="rounded=0;whiteSpace=wrap;html=1;fillStyle=hatch;dashed=1;dashPattern=8 8;strokeColor=#808080;" vertex="1" parent="1">
          <mxGeometry x="190" y="127" width="314" height="83" as="geometry" />
        </mxCell>
        <mxCell id="75TNPySaZIBt-O8_bH7v-2" style="edgeStyle=orthogonalEdgeStyle;rounded=0;orthogonalLoop=1;jettySize=auto;html=1;exitX=0.5;exitY=1;exitDx=0;exitDy=0;" edge="1" parent="1" source="gJhGZZJD6wCVzzeD1Rhf-1" target="bmwDqeTBeZvy_c3GI4oe-2">
          <mxGeometry relative="1" as="geometry" />
        </mxCell>
        <mxCell id="gJhGZZJD6wCVzzeD1Rhf-1" value="Inicio" style="ellipse;whiteSpace=wrap;html=1;aspect=fixed;fillColor=#d5e8d4;strokeColor=#82b366;labelPosition=right;verticalLabelPosition=middle;align=left;verticalAlign=middle;" parent="1" vertex="1">
          <mxGeometry x="251.5" y="-20" width="37" height="37" as="geometry" />
        </mxCell>
        <mxCell id="CE8rgLj-crdpCECgngkh-7" style="edgeStyle=orthogonalEdgeStyle;rounded=0;orthogonalLoop=1;jettySize=auto;html=1;exitX=1;exitY=0.5;exitDx=0;exitDy=0;" edge="1" parent="1" source="CE8rgLj-crdpCECgngkh-1" target="CE8rgLj-crdpCECgngkh-6">
          <mxGeometry relative="1" as="geometry" />
        </mxCell>
        <mxCell id="CE8rgLj-crdpCECgngkh-1" value="Lee la Base Pontencial" style="rounded=1;whiteSpace=wrap;html=1;fillColor=#dae8fc;strokeColor=#6c8ebf;" vertex="1" parent="1">
          <mxGeometry x="370" y="251" width="120" height="60" as="geometry" />
        </mxCell>
        <mxCell id="75TNPySaZIBt-O8_bH7v-17" style="edgeStyle=orthogonalEdgeStyle;rounded=0;orthogonalLoop=1;jettySize=auto;html=1;exitX=0.5;exitY=1;exitDx=0;exitDy=0;" edge="1" parent="1" source="CE8rgLj-crdpCECgngkh-4" target="CE8rgLj-crdpCECgngkh-1">
          <mxGeometry relative="1" as="geometry" />
        </mxCell>
        <mxCell id="CE8rgLj-crdpCECgngkh-4" value="BASE_IMPULSE_BONO&lt;br style=&quot;font-size: 9px;&quot;&gt;_SALE_SATPUSH" style="shape=datastore;whiteSpace=wrap;html=1;fillColor=#ffe6cc;strokeColor=#d79b00;fontSize=9;" vertex="1" parent="1">
          <mxGeometry x="370" y="140" width="120" height="60" as="geometry" />
        </mxCell>
        <mxCell id="CE8rgLj-crdpCECgngkh-9" style="edgeStyle=orthogonalEdgeStyle;rounded=0;orthogonalLoop=1;jettySize=auto;html=1;exitX=1;exitY=0.5;exitDx=0;exitDy=0;entryX=0;entryY=0.5;entryDx=0;entryDy=0;" edge="1" parent="1" source="CE8rgLj-crdpCECgngkh-6" target="CE8rgLj-crdpCECgngkh-8">
          <mxGeometry relative="1" as="geometry" />
        </mxCell>
        <mxCell id="CE8rgLj-crdpCECgngkh-6" value="Envio de Sat Push" style="rounded=1;whiteSpace=wrap;html=1;fillColor=#dae8fc;strokeColor=#6c8ebf;" vertex="1" parent="1">
          <mxGeometry x="540" y="251" width="120" height="60" as="geometry" />
        </mxCell>
        <mxCell id="CE8rgLj-crdpCECgngkh-14" style="edgeStyle=orthogonalEdgeStyle;rounded=0;orthogonalLoop=1;jettySize=auto;html=1;exitX=0.5;exitY=1;exitDx=0;exitDy=0;entryX=0.5;entryY=0;entryDx=0;entryDy=0;" edge="1" parent="1" source="CE8rgLj-crdpCECgngkh-8" target="CE8rgLj-crdpCECgngkh-13">
          <mxGeometry relative="1" as="geometry" />
        </mxCell>
        <mxCell id="CE8rgLj-crdpCECgngkh-15" value="No" style="edgeLabel;html=1;align=center;verticalAlign=middle;resizable=0;points=[];" vertex="1" connectable="0" parent="CE8rgLj-crdpCECgngkh-14">
          <mxGeometry x="-0.5135" y="4" relative="1" as="geometry">
            <mxPoint x="4" y="8" as="offset" />
          </mxGeometry>
        </mxCell>
        <mxCell id="CE8rgLj-crdpCECgngkh-17" style="edgeStyle=orthogonalEdgeStyle;rounded=0;orthogonalLoop=1;jettySize=auto;html=1;exitX=1;exitY=0.5;exitDx=0;exitDy=0;" edge="1" parent="1" source="CE8rgLj-crdpCECgngkh-8" target="CE8rgLj-crdpCECgngkh-20">
          <mxGeometry relative="1" as="geometry">
            <mxPoint x="820" y="281" as="targetPoint" />
          </mxGeometry>
        </mxCell>
        <mxCell id="CE8rgLj-crdpCECgngkh-18" value="Si" style="edgeLabel;html=1;align=center;verticalAlign=middle;resizable=0;points=[];" vertex="1" connectable="0" parent="CE8rgLj-crdpCECgngkh-17">
          <mxGeometry x="-0.3488" y="-2" relative="1" as="geometry">
            <mxPoint y="-13" as="offset" />
          </mxGeometry>
        </mxCell>
        <mxCell id="CE8rgLj-crdpCECgngkh-8" value="¿Acepta SatPush?" style="rhombus;whiteSpace=wrap;html=1;fillColor=#fff2cc;strokeColor=#d6b656;" vertex="1" parent="1">
          <mxGeometry x="707" y="249" width="70" height="64" as="geometry" />
        </mxCell>
        <mxCell id="CE8rgLj-crdpCECgngkh-13" value="" style="ellipse;whiteSpace=wrap;html=1;aspect=fixed;fillColor=#f8cecc;strokeColor=#b85450;" vertex="1" parent="1">
          <mxGeometry x="723.5" y="350" width="37" height="37" as="geometry" />
        </mxCell>
        <mxCell id="CE8rgLj-crdpCECgngkh-23" style="edgeStyle=orthogonalEdgeStyle;rounded=0;orthogonalLoop=1;jettySize=auto;html=1;exitX=1;exitY=0.5;exitDx=0;exitDy=0;entryX=0;entryY=0.5;entryDx=0;entryDy=0;" edge="1" parent="1" source="CE8rgLj-crdpCECgngkh-20" target="CE8rgLj-crdpCECgngkh-22">
          <mxGeometry relative="1" as="geometry" />
        </mxCell>
        <mxCell id="CE8rgLj-crdpCECgngkh-20" value="Aprovisionamiento de Paquete" style="rounded=1;whiteSpace=wrap;html=1;fillColor=#dae8fc;strokeColor=#6c8ebf;" vertex="1" parent="1">
          <mxGeometry x="810" y="251" width="100" height="60" as="geometry" />
        </mxCell>
        <mxCell id="CE8rgLj-crdpCECgngkh-22" value="Fin" style="ellipse;whiteSpace=wrap;html=1;aspect=fixed;fillColor=#f8cecc;strokeColor=#b85450;labelPosition=center;verticalLabelPosition=bottom;align=center;verticalAlign=top;" vertex="1" parent="1">
          <mxGeometry x="940" y="262.5" width="37" height="37" as="geometry" />
        </mxCell>
        <mxCell id="bmwDqeTBeZvy_c3GI4oe-3" style="edgeStyle=orthogonalEdgeStyle;rounded=0;orthogonalLoop=1;jettySize=auto;html=1;exitX=0.5;exitY=1;exitDx=0;exitDy=0;entryX=0.5;entryY=0;entryDx=0;entryDy=0;" edge="1" parent="1" source="bmwDqeTBeZvy_c3GI4oe-2" target="bmwDqeTBeZvy_c3GI4oe-4">
          <mxGeometry relative="1" as="geometry" />
        </mxCell>
        <mxCell id="bmwDqeTBeZvy_c3GI4oe-2" value="Usuario carga el archivo al SFTP de L-V a las&amp;nbsp; 10:00am" style="rounded=1;whiteSpace=wrap;html=1;fillColor=#dae8fc;strokeColor=#6c8ebf;" vertex="1" parent="1">
          <mxGeometry x="200" y="50" width="140" height="50" as="geometry" />
        </mxCell>
        <mxCell id="75TNPySaZIBt-O8_bH7v-1" style="edgeStyle=orthogonalEdgeStyle;rounded=0;orthogonalLoop=1;jettySize=auto;html=1;exitX=1;exitY=0.5;exitDx=0;exitDy=0;" edge="1" parent="1" source="bmwDqeTBeZvy_c3GI4oe-4" target="CE8rgLj-crdpCECgngkh-4">
          <mxGeometry relative="1" as="geometry" />
        </mxCell>
        <mxCell id="75TNPySaZIBt-O8_bH7v-3" style="edgeStyle=orthogonalEdgeStyle;rounded=0;orthogonalLoop=1;jettySize=auto;html=1;exitX=0.5;exitY=1;exitDx=0;exitDy=0;" edge="1" parent="1" source="bmwDqeTBeZvy_c3GI4oe-4" target="75TNPySaZIBt-O8_bH7v-8">
          <mxGeometry relative="1" as="geometry" />
        </mxCell>
        <mxCell id="bmwDqeTBeZvy_c3GI4oe-4" value="Se inserta la base a un tabla en Campsys de L-V a las 10:15 am" style="rounded=1;whiteSpace=wrap;html=1;fillColor=#dae8fc;strokeColor=#6c8ebf;" vertex="1" parent="1">
          <mxGeometry x="200" y="140" width="140" height="60" as="geometry" />
        </mxCell>
        <mxCell id="75TNPySaZIBt-O8_bH7v-5" value="LOADING PROCESS INTEGRATION" style="text;html=1;strokeColor=none;fillColor=none;align=center;verticalAlign=middle;whiteSpace=wrap;rounded=0;fontStyle=1;fontSize=11;" vertex="1" parent="1">
          <mxGeometry x="310" y="108" width="193.5" height="20" as="geometry" />
        </mxCell>
        <mxCell id="75TNPySaZIBt-O8_bH7v-10" style="edgeStyle=orthogonalEdgeStyle;rounded=0;orthogonalLoop=1;jettySize=auto;html=1;exitX=1;exitY=0.5;exitDx=0;exitDy=0;" edge="1" parent="1" source="75TNPySaZIBt-O8_bH7v-8" target="CE8rgLj-crdpCECgngkh-1">
          <mxGeometry relative="1" as="geometry" />
        </mxCell>
        <mxCell id="75TNPySaZIBt-O8_bH7v-8" value="Ejecuta la aplicación a través de una petición de L-V a las 11:30 am" style="rounded=1;whiteSpace=wrap;html=1;fillColor=#dae8fc;strokeColor=#6c8ebf;" vertex="1" parent="1">
          <mxGeometry x="200" y="251" width="140" height="60" as="geometry" />
        </mxCell>
        <mxCell id="75TNPySaZIBt-O8_bH7v-11" value="OCP(IMPULSE-BONUS-SALE-STAPUSH, SATPUSH-API)" style="text;html=1;strokeColor=none;fillColor=none;align=center;verticalAlign=middle;whiteSpace=wrap;rounded=0;fontStyle=1;fontSize=11;" vertex="1" parent="1">
          <mxGeometry x="690" y="208" width="300" height="20" as="geometry" />
        </mxCell>
        <mxCell id="75TNPySaZIBt-O8_bH7v-14" value="BATCH-MANAGEMENT-INTEGRATION" style="text;html=1;strokeColor=none;fillColor=none;align=center;verticalAlign=middle;whiteSpace=wrap;rounded=0;fontStyle=1;fontSize=11;" vertex="1" parent="1">
          <mxGeometry x="190" y="322" width="160" height="30" as="geometry" />
        </mxCell>
        <mxCell id="75TNPySaZIBt-O8_bH7v-20" style="edgeStyle=orthogonalEdgeStyle;rounded=0;orthogonalLoop=1;jettySize=auto;html=1;exitX=0.5;exitY=0;exitDx=0;exitDy=0;entryX=0.5;entryY=1;entryDx=0;entryDy=0;" edge="1" parent="1" source="75TNPySaZIBt-O8_bH7v-18" target="CE8rgLj-crdpCECgngkh-1">
          <mxGeometry relative="1" as="geometry" />
        </mxCell>
        <mxCell id="75TNPySaZIBt-O8_bH7v-18" value="&lt;p class=&quot;MsoNormal&quot; style=&quot;font-size: 9px;&quot;&gt;&lt;span style=&quot;font-size: 9px;&quot;&gt;TENOR_IMPULSE_&amp;nbsp; &amp;nbsp; &lt;/span&gt;&lt;span style=&quot;background-color: initial; font-size: 9px;&quot;&gt;BONUS_SALE_SAT&lt;/span&gt;&lt;/p&gt;" style="shape=datastore;whiteSpace=wrap;html=1;fillColor=#ffe6cc;strokeColor=#d79b00;fontSize=9;fontStyle=0" vertex="1" parent="1">
          <mxGeometry x="380" y="334" width="100" height="53" as="geometry" />
        </mxCell>
      </root>
    </mxGraphModel>
  </diagram>
  <diagram id="WNxTPc-twOpnKhsMMWsS" name="Componentes">
    <mxGraphModel dx="1073" dy="825" grid="1" gridSize="10" guides="1" tooltips="1" connect="1" arrows="1" fold="1" page="1" pageScale="1" pageWidth="1654" pageHeight="1169" math="0" shadow="0">
      <root>
        <mxCell id="0" />
        <mxCell id="1" parent="0" />
        <mxCell id="TRPWqeNlIJwtBI82UsCC-1" value="&lt;p style=&quot;margin-left:36.0000pt;text-indent:-18.0000pt;mso-list:l0 level1 lfo1;&quot; class=&quot;15&quot;&gt;&lt;br&gt;&lt;/p&gt;" style="rounded=0;whiteSpace=wrap;html=1;shadow=0;glass=0;labelBorderColor=none;sketch=0;fillStyle=auto;strokeColor=#000000;strokeWidth=1;fontSize=13;fontColor=#7ece78;fillColor=default;" vertex="1" parent="1">
          <mxGeometry x="200" y="520" width="670" height="490" as="geometry" />
        </mxCell>
        <mxCell id="TRPWqeNlIJwtBI82UsCC-2" value="Servidores&lt;br style=&quot;font-size: 8px;&quot;&gt;&lt;div&gt;10.4.88.109,&amp;nbsp;&lt;span style=&quot;background-color: initial;&quot;&gt;10.4.88.119,&lt;/span&gt;&lt;/div&gt;&lt;div&gt;&lt;div style=&quot;border-color: var(--border-color);&quot;&gt;10.4.88.138,&amp;nbsp;&lt;span style=&quot;background-color: initial;&quot;&gt;10.4.88.144&lt;/span&gt;&lt;/div&gt;&lt;/div&gt;" style="rounded=0;whiteSpace=wrap;html=1;labelBorderColor=none;fontSize=8;strokeColor=#004C99;align=left;dashed=1;strokeWidth=1;dashPattern=1 4;fontColor=#004C99;" vertex="1" parent="1">
          <mxGeometry x="600.0000000000001" y="960" width="104.57" height="30" as="geometry" />
        </mxCell>
        <mxCell id="TRPWqeNlIJwtBI82UsCC-3" value="Servidores&lt;br style=&quot;font-size: 8px;&quot;&gt;10.4.88.61:8080&lt;br&gt;10.4.88.147:8080&lt;div data-en-clipboard=&quot;true&quot; data-pm-slice=&quot;1 1 []&quot; style=&quot;font-size: 8px;&quot;&gt;10.4.88.148:8080&lt;br&gt;&lt;/div&gt;" style="rounded=0;whiteSpace=wrap;html=1;labelBorderColor=none;fontSize=8;align=left;dashed=1;strokeWidth=1;dashPattern=1 4;fontColor=#997E8F;strokeColor=#B5739D;" vertex="1" parent="1">
          <mxGeometry x="224.3599999999999" y="661" width="84.8" height="40" as="geometry" />
        </mxCell>
        <mxCell id="TRPWqeNlIJwtBI82UsCC-4" style="edgeStyle=orthogonalEdgeStyle;rounded=1;orthogonalLoop=1;jettySize=auto;html=1;exitX=0.75;exitY=1;exitDx=0;exitDy=0;entryX=0.75;entryY=0;entryDx=0;entryDy=0;strokeColor=#808080;" edge="1" parent="1" source="TRPWqeNlIJwtBI82UsCC-5" target="TRPWqeNlIJwtBI82UsCC-6">
          <mxGeometry relative="1" as="geometry" />
        </mxCell>
        <mxCell id="TRPWqeNlIJwtBI82UsCC-5" value="" style="rounded=0;whiteSpace=wrap;html=1;labelBorderColor=none;fontSize=11;strokeWidth=1;strokeColor=#B5739D;shadow=1;fontStyle=1;align=center;" vertex="1" parent="1">
          <mxGeometry x="224.36" y="539" width="535.64" height="100" as="geometry" />
        </mxCell>
        <mxCell id="TRPWqeNlIJwtBI82UsCC-6" value="" style="rounded=0;whiteSpace=wrap;html=1;labelBorderColor=none;fontSize=11;fillColor=default;shadow=1;strokeColor=#FF9999;" vertex="1" parent="1">
          <mxGeometry x="600" y="700" width="162.63" height="150" as="geometry" />
        </mxCell>
        <mxCell id="TRPWqeNlIJwtBI82UsCC-7" value="" style="rounded=0;whiteSpace=wrap;html=1;labelBorderColor=none;fontSize=11;fillColor=default;strokeColor=#59759E;strokeWidth=1;shadow=1;" vertex="1" parent="1">
          <mxGeometry x="600" y="865" width="164" height="95" as="geometry" />
        </mxCell>
        <mxCell id="TRPWqeNlIJwtBI82UsCC-8" style="edgeStyle=orthogonalEdgeStyle;rounded=1;orthogonalLoop=1;jettySize=auto;html=1;exitX=0.5;exitY=0;exitDx=0;exitDy=0;strokeColor=#808080;" edge="1" parent="1" source="TRPWqeNlIJwtBI82UsCC-9">
          <mxGeometry relative="1" as="geometry">
            <mxPoint x="402" y="640" as="targetPoint" />
          </mxGeometry>
        </mxCell>
        <mxCell id="TRPWqeNlIJwtBI82UsCC-9" value="" style="rounded=0;whiteSpace=wrap;html=1;labelBorderColor=none;fontSize=11;strokeWidth=1;strokeColor=#B5739D;shadow=1;" vertex="1" parent="1">
          <mxGeometry x="224.36" y="700" width="355.64" height="150" as="geometry" />
        </mxCell>
        <mxCell id="TRPWqeNlIJwtBI82UsCC-10" value="invoke-impulse-bonus-cron-http" style="rounded=0;whiteSpace=wrap;html=1;labelBorderColor=none;fontSize=9;strokeColor=#000000;fillColor=default;align=center;dashed=1;dashPattern=1 4;" vertex="1" parent="1">
          <mxGeometry x="415.63" y="758" width="135.91" height="20" as="geometry" />
        </mxCell>
        <mxCell id="TRPWqeNlIJwtBI82UsCC-11" value="Rutas" style="text;html=1;strokeColor=none;fillColor=none;align=center;verticalAlign=middle;whiteSpace=wrap;rounded=0;fontStyle=1;fontSize=10;" vertex="1" parent="1">
          <mxGeometry x="415.63" y="738" width="138.37" height="20" as="geometry" />
        </mxCell>
        <mxCell id="TRPWqeNlIJwtBI82UsCC-12" style="edgeStyle=orthogonalEdgeStyle;shape=link;rounded=0;orthogonalLoop=1;jettySize=auto;html=1;exitX=0.5;exitY=0;exitDx=0;exitDy=0;entryX=0.5;entryY=1;entryDx=0;entryDy=0;strokeColor=#990099;strokeWidth=1;fontSize=12;fontColor=#7ece78;" edge="1" parent="1" source="TRPWqeNlIJwtBI82UsCC-14" target="TRPWqeNlIJwtBI82UsCC-10">
          <mxGeometry relative="1" as="geometry" />
        </mxCell>
        <mxCell id="TRPWqeNlIJwtBI82UsCC-13" style="edgeStyle=orthogonalEdgeStyle;rounded=1;orthogonalLoop=1;jettySize=auto;html=1;exitX=1;exitY=0.5;exitDx=0;exitDy=0;entryX=0;entryY=0.5;entryDx=0;entryDy=0;strokeColor=#808080;" edge="1" parent="1" source="TRPWqeNlIJwtBI82UsCC-14" target="TRPWqeNlIJwtBI82UsCC-30">
          <mxGeometry relative="1" as="geometry" />
        </mxCell>
        <mxCell id="TRPWqeNlIJwtBI82UsCC-14" value="ms-campaign-batch-management-integration" style="rounded=1;whiteSpace=wrap;html=1;labelBorderColor=none;fontSize=11;fontStyle=1;fillStyle=auto;fillColor=#e1d5e7;strokeColor=#9673a6;strokeWidth=1;glass=0;shadow=1;" vertex="1" parent="1">
          <mxGeometry x="415.63" y="778" width="138.37" height="50" as="geometry" />
        </mxCell>
        <mxCell id="TRPWqeNlIJwtBI82UsCC-15" value="queue-feedback-batch" style="shape=cylinder3;whiteSpace=wrap;html=1;boundedLbl=1;backgroundOutline=1;size=13.07998046875025;labelBorderColor=none;fontSize=10;fillColor=#dae8fc;direction=south;strokeColor=#6c8ebf;strokeWidth=1;fontStyle=1;shadow=1;" vertex="1" parent="1">
          <mxGeometry x="623.9" y="894" width="116.2" height="50" as="geometry" />
        </mxCell>
        <mxCell id="TRPWqeNlIJwtBI82UsCC-16" style="edgeStyle=orthogonalEdgeStyle;shape=link;rounded=0;orthogonalLoop=1;jettySize=auto;html=1;exitX=0.5;exitY=1;exitDx=0;exitDy=0;entryX=0.5;entryY=0;entryDx=0;entryDy=0;strokeColor=#990099;strokeWidth=1;fontSize=12;fontColor=#7ece78;" edge="1" parent="1" source="TRPWqeNlIJwtBI82UsCC-17" target="TRPWqeNlIJwtBI82UsCC-19">
          <mxGeometry relative="1" as="geometry" />
        </mxCell>
        <mxCell id="TRPWqeNlIJwtBI82UsCC-17" value="impulse-bonus-batch-sftp&lt;div data-en-clipboard=&quot;true&quot; data-pm-slice=&quot;1 1 []&quot;&gt;impulse-bonus-batch-truncate&lt;br&gt;&lt;/div&gt;" style="rounded=0;whiteSpace=wrap;html=1;labelBorderColor=none;fontSize=9;strokeColor=default;align=center;dashed=1;strokeWidth=1;dashPattern=1 4;" vertex="1" parent="1">
          <mxGeometry x="248.09" y="748" width="145.91" height="30" as="geometry" />
        </mxCell>
        <mxCell id="TRPWqeNlIJwtBI82UsCC-18" value="Rutas" style="text;html=1;strokeColor=none;fillColor=none;align=center;verticalAlign=middle;whiteSpace=wrap;rounded=0;fontStyle=1;fontSize=10;" vertex="1" parent="1">
          <mxGeometry x="248.09" y="728" width="145.91" height="20" as="geometry" />
        </mxCell>
        <mxCell id="TRPWqeNlIJwtBI82UsCC-19" value="&lt;div data-en-clipboard=&quot;true&quot; data-pm-slice=&quot;1 1 []&quot; style=&quot;font-size: 11px;&quot;&gt;ms-campaign-loading-process-integration&lt;/div&gt;" style="rounded=1;whiteSpace=wrap;html=1;labelBorderColor=none;fontSize=11;fontStyle=1;strokeColor=#9673a6;strokeWidth=1;fillColor=#e1d5e7;shadow=1;" vertex="1" parent="1">
          <mxGeometry x="248.09" y="778" width="145.91" height="50" as="geometry" />
        </mxCell>
        <mxCell id="TRPWqeNlIJwtBI82UsCC-20" value="CAMEL" style="text;html=1;strokeColor=none;fillColor=none;align=left;verticalAlign=middle;whiteSpace=wrap;rounded=0;fontStyle=1;fontSize=13;" vertex="1" parent="1">
          <mxGeometry x="224.36000000000013" y="700" width="60" height="20" as="geometry" />
        </mxCell>
        <mxCell id="TRPWqeNlIJwtBI82UsCC-21" value="KAFKA" style="text;html=1;strokeColor=none;fillColor=none;align=left;verticalAlign=middle;whiteSpace=wrap;rounded=0;fontStyle=1;fontSize=13;" vertex="1" parent="1">
          <mxGeometry x="600.0000000000001" y="865" width="60" height="20" as="geometry" />
        </mxCell>
        <mxCell id="TRPWqeNlIJwtBI82UsCC-22" value="OPENSHIFT" style="text;html=1;strokeColor=none;fillColor=none;align=left;verticalAlign=middle;whiteSpace=wrap;rounded=0;fontStyle=1;fontSize=13;" vertex="1" parent="1">
          <mxGeometry x="600" y="700" width="78.06" height="20" as="geometry" />
        </mxCell>
        <mxCell id="TRPWqeNlIJwtBI82UsCC-23" style="edgeStyle=elbowEdgeStyle;rounded=1;sketch=0;orthogonalLoop=1;jettySize=auto;elbow=vertical;html=1;exitX=1;exitY=0.5;exitDx=0;exitDy=0;shadow=0;strokeColor=#000000;strokeWidth=1;fontSize=13;fontColor=#7ece78;" edge="1" parent="1">
          <mxGeometry relative="1" as="geometry">
            <mxPoint x="897.9299999999998" y="575" as="sourcePoint" />
            <mxPoint x="897.9299999999998" y="575.0689655172414" as="targetPoint" />
          </mxGeometry>
        </mxCell>
        <mxCell id="TRPWqeNlIJwtBI82UsCC-24" value="ORACLE - SCHEMA: CAMPSYS" style="text;html=1;strokeColor=none;fillColor=none;align=left;verticalAlign=middle;whiteSpace=wrap;rounded=0;fontStyle=1;fontSize=13;" vertex="1" parent="1">
          <mxGeometry x="224.36000000000013" y="539" width="204.57" height="20" as="geometry" />
        </mxCell>
        <mxCell id="TRPWqeNlIJwtBI82UsCC-25" value="BASE_IMPULSE_BONO_SALE_SATPUSH&lt;br&gt;TENOR_IMPULSE_BONUS_SALE_SAT" style="rounded=1;whiteSpace=wrap;html=1;labelBorderColor=none;fontSize=9;strokeWidth=1;strokeColor=#b85450;shadow=1;fontStyle=0;align=center;fillColor=#FFF1ED;" vertex="1" parent="1">
          <mxGeometry x="248.09" y="570" width="231.91" height="40" as="geometry" />
        </mxCell>
        <mxCell id="TRPWqeNlIJwtBI82UsCC-26" value="Envio de Sat Push" style="rounded=0;whiteSpace=wrap;html=1;shadow=1;glass=0;labelBorderColor=none;sketch=0;strokeWidth=1;fontSize=11;fillColor=#b0e3e6;strokeColor=#0e8088;" vertex="1" parent="1">
          <mxGeometry x="780" y="698" width="60" height="152" as="geometry" />
        </mxCell>
        <mxCell id="TRPWqeNlIJwtBI82UsCC-27" value="apps.ocpprod.gp.inet" style="rounded=0;whiteSpace=wrap;html=1;labelBorderColor=none;fontSize=8;strokeColor=#CC0000;align=left;dashed=1;strokeWidth=1;dashPattern=1 4;fontColor=#CC0000;" vertex="1" parent="1">
          <mxGeometry x="600" y="681" width="84.8" height="18" as="geometry" />
        </mxCell>
        <mxCell id="TRPWqeNlIJwtBI82UsCC-28" style="edgeStyle=orthogonalEdgeStyle;rounded=0;orthogonalLoop=1;jettySize=auto;html=1;exitX=0.5;exitY=0;exitDx=0;exitDy=0;entryX=0.5;entryY=1;entryDx=0;entryDy=0;strokeColor=#808080;" edge="1" parent="1" source="TRPWqeNlIJwtBI82UsCC-30" target="TRPWqeNlIJwtBI82UsCC-31">
          <mxGeometry relative="1" as="geometry" />
        </mxCell>
        <mxCell id="TRPWqeNlIJwtBI82UsCC-29" style="edgeStyle=orthogonalEdgeStyle;rounded=0;orthogonalLoop=1;jettySize=auto;html=1;exitX=0.5;exitY=1;exitDx=0;exitDy=0;strokeColor=#808080;" edge="1" parent="1" source="TRPWqeNlIJwtBI82UsCC-30" target="TRPWqeNlIJwtBI82UsCC-15">
          <mxGeometry relative="1" as="geometry" />
        </mxCell>
        <mxCell id="TRPWqeNlIJwtBI82UsCC-30" value="&lt;div data-en-clipboard=&quot;true&quot; data-pm-slice=&quot;1 1 []&quot; style=&quot;font-size: 11px;&quot;&gt;&lt;p class=&quot;MsoNormal&quot; style=&quot;font-size: 11px;&quot;&gt;&lt;i style=&quot;border-color: var(--border-color);&quot;&gt;impulse-bonus-sale-satpush&lt;/i&gt;&lt;br&gt;&lt;/p&gt;&lt;/div&gt;" style="rounded=1;whiteSpace=wrap;html=1;labelBorderColor=none;strokeColor=#b85450;strokeWidth=1;fontSize=11;fillColor=#f8cecc;shadow=1;fontStyle=1" vertex="1" parent="1">
          <mxGeometry x="617.39" y="783" width="129.21" height="40" as="geometry" />
        </mxCell>
        <mxCell id="TRPWqeNlIJwtBI82UsCC-31" value="&lt;div data-en-clipboard=&quot;true&quot; data-pm-slice=&quot;1 1 []&quot; style=&quot;font-size: 11px;&quot;&gt;&lt;p class=&quot;MsoNormal&quot; style=&quot;font-size: 11px;&quot;&gt;&lt;i style=&quot;border-color: var(--border-color);&quot;&gt;satpush-api&lt;/i&gt;&lt;br&gt;&lt;/p&gt;&lt;/div&gt;" style="rounded=1;whiteSpace=wrap;html=1;labelBorderColor=none;strokeColor=#b85450;strokeWidth=1;fontSize=11;fillColor=#f8cecc;shadow=1;fontStyle=1" vertex="1" parent="1">
          <mxGeometry x="616.71" y="733" width="129.21" height="35" as="geometry" />
        </mxCell>
        <mxCell id="TRPWqeNlIJwtBI82UsCC-32" value="CUSTOMER_CONTACT&lt;br&gt;IMPULSE_BONUS_SALE_WL" style="rounded=1;whiteSpace=wrap;html=1;labelBorderColor=none;fontSize=9;strokeWidth=1;strokeColor=#b85450;shadow=1;fontStyle=0;align=center;fillColor=#FFF1ED;" vertex="1" parent="1">
          <mxGeometry x="510" y="570" width="208.89" height="40" as="geometry" />
        </mxCell>
        <mxCell id="TRPWqeNlIJwtBI82UsCC-33" style="edgeStyle=orthogonalEdgeStyle;rounded=0;orthogonalLoop=1;jettySize=auto;html=1;exitX=1;exitY=0.5;exitDx=0;exitDy=0;strokeColor=#808080;" edge="1" parent="1" source="TRPWqeNlIJwtBI82UsCC-31">
          <mxGeometry relative="1" as="geometry">
            <mxPoint x="780" y="750" as="targetPoint" />
          </mxGeometry>
        </mxCell>
        <mxCell id="QjUGv4lpClSPNZEPNuaj-1" style="edgeStyle=orthogonalEdgeStyle;rounded=1;orthogonalLoop=1;jettySize=auto;html=1;exitX=0;exitY=0.5;exitDx=0;exitDy=0;entryX=0.5;entryY=1;entryDx=0;entryDy=0;strokeColor=#808080;" edge="1" parent="1" source="TRPWqeNlIJwtBI82UsCC-7" target="TRPWqeNlIJwtBI82UsCC-14">
          <mxGeometry relative="1" as="geometry" />
        </mxCell>
      </root>
    </mxGraphModel>
  </diagram>
</mxfile>
